<svg width="85" height="36" viewBox="0 0 85 36" fill="none" xmlns="http://www.w3.org/2000/svg">
<path d="M9.408 26.168C7.856 26.168 6.424 25.808 5.112 25.088C3.816 24.352 2.784 23.336 2.016 22.04C1.264 20.728 0.888 19.256 0.888 17.624C0.888 15.992 1.264 14.528 2.016 13.232C2.784 11.936 3.816 10.928 5.112 10.208C6.424 9.472 7.856 9.104 9.408 9.104C10.976 9.104 12.408 9.472 13.704 10.208C15.016 10.928 16.048 11.936 16.8 13.232C17.552 14.528 17.928 15.992 17.928 17.624C17.928 19.256 17.552 20.728 16.8 22.04C16.048 23.336 15.016 24.352 13.704 25.088C12.408 25.808 10.976 26.168 9.408 26.168ZM9.408 23.792C10.512 23.792 11.496 23.544 12.36 23.048C13.224 22.536 13.896 21.816 14.376 20.888C14.872 19.944 15.12 18.856 15.12 17.624C15.12 16.392 14.872 15.312 14.376 14.384C13.896 13.456 13.224 12.744 12.36 12.248C11.496 11.752 10.512 11.504 9.408 11.504C8.304 11.504 7.32 11.752 6.456 12.248C5.592 12.744 4.912 13.456 4.416 14.384C3.936 15.312 3.696 16.392 3.696 17.624C3.696 18.856 3.936 19.944 4.416 20.888C4.912 21.816 5.592 22.536 6.456 23.048C7.32 23.544 8.304 23.792 9.408 23.792ZM36.8683 12.56C37.9083 12.56 38.8363 12.776 39.6523 13.208C40.4843 13.64 41.1323 14.28 41.5963 15.128C42.0763 15.976 42.3163 17 42.3163 18.2V26H39.6043V18.608C39.6043 17.424 39.3083 16.52 38.7163 15.896C38.1243 15.256 37.3163 14.936 36.2923 14.936C35.2683 14.936 34.4523 15.256 33.8443 15.896C33.2523 16.52 32.9563 17.424 32.9563 18.608V26H30.2443V18.608C30.2443 17.424 29.9483 16.52 29.3563 15.896C28.7643 15.256 27.9563 14.936 26.9323 14.936C25.9083 14.936 25.0923 15.256 24.4843 15.896C23.8923 16.52 23.5963 17.424 23.5963 18.608V26H20.8603V12.776H23.5963V14.288C24.0443 13.744 24.6123 13.32 25.3003 13.016C25.9883 12.712 26.7243 12.56 27.5083 12.56C28.5643 12.56 29.5083 12.784 30.3403 13.232C31.1723 13.68 31.8123 14.328 32.2603 15.176C32.6603 14.376 33.2843 13.744 34.1323 13.28C34.9803 12.8 35.8923 12.56 36.8683 12.56ZM45.1258 19.328C45.1258 18 45.3978 16.824 45.9418 15.8C46.5018 14.776 47.2538 13.984 48.1978 13.424C49.1578 12.848 50.2138 12.56 51.3658 12.56C52.4058 12.56 53.3098 12.768 54.0778 13.184C54.8618 13.584 55.4858 14.088 55.9498 14.696V12.776H58.7098V26H55.9498V24.032C55.4858 24.656 54.8538 25.176 54.0538 25.592C53.2538 26.008 52.3418 26.216 51.3178 26.216C50.1818 26.216 49.1418 25.928 48.1978 25.352C47.2538 24.76 46.5018 23.944 45.9418 22.904C45.3978 21.848 45.1258 20.656 45.1258 19.328ZM55.9498 19.376C55.9498 18.464 55.7578 17.672 55.3738 17C55.0058 16.328 54.5178 15.816 53.9098 15.464C53.3018 15.112 52.6458 14.936 51.9418 14.936C51.2378 14.936 50.5818 15.112 49.9738 15.464C49.3658 15.8 48.8698 16.304 48.4858 16.976C48.1178 17.632 47.9338 18.416 47.9338 19.328C47.9338 20.24 48.1178 21.04 48.4858 21.728C48.8698 22.416 49.3658 22.944 49.9738 23.312C50.5978 23.664 51.2538 23.84 51.9418 23.84C52.6458 23.84 53.3018 23.664 53.9098 23.312C54.5178 22.96 55.0058 22.448 55.3738 21.776C55.7578 21.088 55.9498 20.288 55.9498 19.376ZM69.3834 12.56C70.3914 12.56 71.2874 12.776 72.0714 13.208C72.8714 13.64 73.4954 14.28 73.9434 15.128C74.4074 15.976 74.6394 17 74.6394 18.2V26H71.9274V18.608C71.9274 17.424 71.6314 16.52 71.0394 15.896C70.4474 15.256 69.6394 14.936 68.6154 14.936C67.5914 14.936 66.7754 15.256 66.1674 15.896C65.5754 16.52 65.2794 17.424 65.2794 18.608V26H62.5434V8.24H65.2794V14.312C65.7434 13.752 66.3274 13.32 67.0314 13.016C67.7514 12.712 68.5354 12.56 69.3834 12.56Z" fill="#1B2021"/>
<circle cx="82" cy="25" r="3" fill="#F58634"/>
</svg>
